<?xml version="1.0" encoding="utf-8"?>
<!-- Generator: Adobe Illustrator 25.4.1, SVG Export Plug-In . SVG Version: 6.00 Build 0)  -->
<svg version="1.1" id="Layer_1" xmlns="http://www.w3.org/2000/svg" xmlns:xlink="http://www.w3.org/1999/xlink" x="0px" y="0px"
	 viewBox="0 0 1221.8 359.5" style="enable-background:new 0 0 1221.8 359.5;" xml:space="preserve">
<style type="text/css">
	.st0{fill-rule:evenodd;clip-rule:evenodd;fill:#FFFFFF;}
	.st1{fill:#FFFFFF;}
</style>
<g>
	<path class="st0" d="M300.5,62.3h-238c0,0-58.4-41.7-28.6-41.7H322h28.6h217.2c32.3,0,56,30.7,48.1,62.4l-54.2,216.7
		c-5.6,22.2-25.4,37.8-48.1,37.8H308.5c-32.2,0-55.8-30.4-48.2-62l15.3-63.1H317l-5,20.5c-7.8,31.6,16.1,62,48.6,62h42l20.8-82.6h68
		c4,0,7.5-2.2,8.3-5.4l0.8-3.4c1-4.1-3-8-8.3-8h-64.6l27.3-108.4h119.8c4.1,0,7.6-3.1,8.2-7.3l1.2-7.9c0.8-5.2-3.1-9.9-8.2-9.9
		H300.5C300.5,62.3,300.5,62.3,300.5,62.3z M300.5,87.3H116.2c-26,0,24.9,41.7,24.9,41.7h154.7l-6.1,25h-98.5
		c-26,0,24.9,41.7,24.9,41.7h63.5h41.5l26.6-108.4h-41.8H300.5z"/>
	<path class="st1" d="M701.5,174.6c0,0-6.6,0-19.8,0l-7.4,27c-0.4,1.5-1.6,2.3-3.4,2.3h-9.5c-0.9,0-1.6-0.3-2-0.9
		c-0.4-0.6-0.5-1.4-0.3-2.3l16.3-59.4h-3.9c-1.1,0-1.8-0.3-2.2-0.9c-0.3-0.6-0.3-1.5,0.1-2.9l1.8-6.5c0.2-0.9,0.5-1.5,0.7-1.7
		c0.3-0.2,0.8-0.4,1.5-0.4c0,0,2.7,0,8.1,0h9.5h23.7c2.2,0,3.1,1.1,2.6,3.3l-1.4,6.1c-0.1,0.8-0.6,1.4-1.4,2
		c-0.8,0.6-1.6,0.9-2.4,0.9h-21.3l-5.8,21h19.1c2.1,0,2.8,1.1,2.3,3.3l-1.5,6.1c-0.1,0.8-0.6,1.4-1.3,2
		C703.1,174.3,702.3,174.6,701.5,174.6z"/>
	<path class="st1" d="M778.2,131.3c0.4-1.5,1.5-2.3,3.3-2.3h9.5c0.9,0,1.6,0.3,2,1c0.4,0.6,0.5,1.4,0.3,2.3l-19,69.4
		c-0.4,1.5-1.6,2.3-3.4,2.3h-9.5c-0.9,0-1.6-0.3-2-0.9c-0.4-0.6-0.5-1.4-0.3-2.3L778.2,131.3z"/>
	<path class="st1" d="M860.1,129c0,0,12.7,0,38,0c1.6,0,2.4,0.6,2.7,1.7v1.7l-0.2,0.3l-1.4,5.7c-0.1,0.8-0.6,1.4-1.4,2
		c-0.8,0.6-1.6,0.9-2.4,0.9h-0.5l-33.1,50.3h19.9c2.2,0,3.1,1.1,2.6,3.3l-1.5,6.1c-0.1,0.8-0.6,1.4-1.4,2c-0.8,0.6-1.6,0.9-2.4,0.9
		H844c-1.3,0-2.2-0.2-2.8-0.7c-0.7-0.4-1-1-1-1.7c0-0.7,0.1-1.6,0.3-2.5l0.1-0.1l38.5-57.7h-20.5c-1.1,0-1.8-0.3-2.2-0.9
		c-0.3-0.6-0.3-1.5,0.1-2.9l1.8-6.5c0.2-0.9,0.4-1.5,0.7-1.7C859.2,129.1,859.6,129,860.1,129z"/>
	<path class="st1" d="M965.1,183.8l-9.6,18.2c-0.8,1.5-2.2,2.2-4.2,2.1l-8.6-0.3c-1.3,0-2.2-0.4-2.7-1.2c-0.4-0.8-0.4-1.7,0.2-2.6
		l37.2-66.6c0.8-1.3,1.7-2.4,2.8-3.1c1.1-0.7,2.2-1.1,3.3-1.1l12.8-0.1c1.4,0,2.5,0.4,3.3,1.3c0.8,0.8,1.2,2.1,1.1,3.7l-4.1,67.6
		c-0.1,1.5-1.2,2.3-3.3,2.3h-9c-1.8,0-2.7-0.9-2.6-2.8l1.2-17.4H965.1z M971.6,171.4h12.1l1.9-26.6L971.6,171.4z"/>
	<path class="st1" d="M1079.2,163.3l4.2-0.6c2-0.2,3.8-0.8,5.2-1.6c1.5-0.8,2.7-2.2,3.8-4c0.6-1.7,1.2-3.9,1.7-6.7
		c0.6-2.8,0.9-5.1,0.9-6.7c0-0.6-0.4-1.2-1.1-1.7c-0.7-0.5-1.4-0.7-2.2-0.7c-0.3,0-0.8,0-1.4,0c-0.6,0-1.4-0.1-2.4-0.1
		c-1,0-1.9-0.1-2.7-0.1L1079.2,163.3z M1070,141.1h-3.7c-0.9,0-1.6-0.3-2-0.9c-0.4-0.6-0.5-1.2-0.3-2l2-7.2c0.2-0.6,0.5-1.1,1-1.5
		c0.5-0.4,1.1-0.6,1.5-0.6h7.6h9.4h6.7c5,0,9.1,1.1,12.2,3.3c3.1,2.2,4.7,5.6,4.7,10.1c0,4.3-0.9,9-2.8,13.9
		c-1.9,4.9-3.9,8.3-6.1,10.1c-2.5,2.3-4.9,4-7.2,5.1l4.5,28c0.4,2.9-0.6,4.3-3,4.3h-8.8c-1,0-1.9-0.5-2.6-1.4
		c-0.7-0.9-1.1-2.2-1.4-3.7l-3.4-25h-2l-7.7,27.9c-0.4,1.5-1.6,2.3-3.4,2.3h-9.5c-0.9,0-1.6-0.3-2-0.9c-0.4-0.6-0.5-1.4-0.3-2.3
		L1070,141.1z"/>
	<path class="st1" d="M1177.8,131.3c0.4-1.5,1.5-2.3,3.3-2.3h9.5c0.9,0,1.6,0.3,2,1c0.4,0.6,0.5,1.4,0.3,2.3l-19,69.4
		c-0.4,1.5-1.6,2.3-3.4,2.3h-9.5c-0.9,0-1.6-0.3-2-0.9c-0.4-0.6-0.5-1.4-0.3-2.3L1177.8,131.3z"/>
	<path class="st1" d="M672,257.7c-1.1,1.5-2.6,2.7-4.5,3.5c-1.9,0.8-4.1,1.2-6.5,1.1c-1.9,0-3.6-0.5-5.1-1.4
		c-1.5-0.9-2.6-2.3-3.5-4.1c-0.9-1.8-1.3-3.9-1.5-6.2c-0.1-1.8,0.1-4,0.5-6.8c0.4-2.8,1.2-5.2,2.3-7.3c1.1-2.1,2.5-3.8,4-5
		c2.1-1.6,4.6-2.4,7.3-2.4c2.9,0.1,5.2,1,6.9,2.8c1.7,1.8,2.6,4.3,2.8,7.6l-4.8,0c-0.3-3.8-2-5.8-5-5.9c-2.3-0.1-4.1,0.8-5.6,2.7
		c-1.5,1.8-2.5,4.5-3,8c-0.3,2-0.5,3.7-0.5,5c-0.1,2.7,0.4,4.7,1.3,6.3c1,1.5,2.4,2.3,4.2,2.3c2.3,0.1,4.3-0.6,5.8-1.9l1.1-6.3h-5.8
		l0.7-4.3h10.7L672,257.7z"/>
	<path class="st1" d="M701.8,249.5h-5.6l-2,12.5h-4.9l5.1-32.4l9.2,0c3.2,0,5.6,0.8,7.3,2.5c1.7,1.7,2.4,4,2.2,7
		c-0.1,2.1-0.8,3.9-1.9,5.4c-1.1,1.5-2.7,2.7-4.7,3.6l4.3,13.4l0,0.3h-5.2L701.8,249.5z M696.9,244.9l4.8,0c1.7,0,3.2-0.5,4.3-1.5
		c1.2-1,1.8-2.4,2-4.1c0.2-1.7-0.1-3-0.8-3.8c-0.7-0.9-1.8-1.4-3.3-1.4l-5.3,0L696.9,244.9z"/>
	<path class="st1" d="M752.9,229.6l-3.3,21.6c-0.5,3.5-1.8,6.2-4,8.3c-2.2,2-4.9,3-8,3c-2.9-0.1-5.2-1-6.9-2.9
		c-1.7-1.9-2.5-4.4-2.3-7.4l0.1-0.8l3.3-21.7h4.9l-3.3,21.7c-0.2,2.1,0,3.7,0.8,4.8c0.8,1.2,2,1.8,3.6,1.8c1.8,0.1,3.3-0.5,4.5-1.6
		c1.2-1.1,2-2.8,2.3-4.9l3.3-21.8H752.9z"/>
	<path class="st1" d="M772.8,249.9l-1.9,12H766l5.1-32.4l10.1,0c3,0,5.4,0.9,7.2,2.8c1.7,1.8,2.5,4.3,2.3,7.3
		c-0.2,3.1-1.4,5.6-3.5,7.5c-2.1,1.8-4.8,2.8-8.1,2.8L772.8,249.9z M773.5,245.4l5.7,0c1.8,0,3.3-0.5,4.4-1.5c1.1-1,1.8-2.4,2.1-4.2
		c0.2-1.6-0.1-3-0.8-4c-0.7-1-1.8-1.5-3.3-1.6l-6.2,0L773.5,245.4z"/>
	<path class="st1" d="M815.6,262.4c-1.9,0-3.6-0.5-5-1.5c-1.4-1-2.5-2.4-3.3-4.2c-0.8-1.8-1.3-3.9-1.4-6.2c-0.1-1.9,0.1-4,0.4-6.5
		c0.4-2.5,1.1-4.7,2.1-6.8c1-2,2.2-3.7,3.6-5c2.3-2.1,5-3.1,8-3.1c2.9,0.1,5.2,1.2,6.9,3.3c1.7,2.1,2.7,5.1,2.8,8.7
		c0.1,1.8-0.1,4-0.5,6.3c-0.4,2.4-1,4.6-2,6.6c-0.9,2-2.1,3.6-3.4,5C821.5,261.3,818.7,262.5,815.6,262.4z M824.7,244.9l0.2-2.4
		c0.1-1.6,0-3.1-0.4-4.5c-0.3-1.4-0.9-2.4-1.7-3.1c-0.8-0.7-1.8-1.1-3-1.2c-1.7-0.1-3.2,0.5-4.5,1.6c-1.3,1.1-2.4,2.8-3.2,5.1
		c-0.8,2.3-1.3,5.1-1.4,8.5c-0.1,2.7,0.2,4.8,1.1,6.4c0.9,1.6,2.2,2.4,4,2.4c2.3,0.1,4.2-0.9,5.7-2.9c1.5-2,2.5-4.8,3-8.5
		L824.7,244.9z"/>
	<path class="st1" d="M873.2,257.4h12.9l-0.7,4.5h-17.8l5.1-32.4h4.9L873.2,257.4z"/>
	<path class="st1" d="M912,262.4c-1.9,0-3.6-0.5-5-1.5c-1.4-1-2.5-2.4-3.3-4.2c-0.8-1.8-1.3-3.9-1.4-6.2c-0.1-1.9,0.1-4,0.4-6.5
		c0.4-2.5,1.1-4.7,2.1-6.8c1-2,2.2-3.7,3.6-5c2.3-2.1,5-3.1,8-3.1c2.9,0.1,5.2,1.2,6.9,3.3c1.7,2.1,2.7,5.1,2.8,8.7
		c0.1,1.8-0.1,4-0.5,6.3c-0.4,2.4-1,4.6-2,6.6c-0.9,2-2.1,3.6-3.4,5C917.9,261.3,915.2,262.5,912,262.4z M921.1,244.9l0.2-2.4
		c0.1-1.6,0-3.1-0.4-4.5c-0.3-1.4-0.9-2.4-1.7-3.1c-0.8-0.7-1.8-1.1-3-1.2c-1.7-0.1-3.2,0.5-4.5,1.6c-1.3,1.1-2.3,2.8-3.2,5.1
		c-0.8,2.3-1.3,5.1-1.4,8.5c-0.1,2.7,0.2,4.8,1.1,6.4c0.9,1.6,2.2,2.4,4,2.4c2.3,0.1,4.2-0.9,5.7-2.9c1.5-2,2.5-4.8,3-8.5
		L921.1,244.9z"/>
	<path class="st1" d="M963.8,257.7c-1.1,1.5-2.6,2.7-4.5,3.5c-2,0.8-4.1,1.2-6.5,1.1c-1.9,0-3.6-0.5-5.1-1.4
		c-1.5-0.9-2.6-2.3-3.5-4.1c-0.9-1.8-1.3-3.9-1.5-6.2c-0.1-1.8,0.1-4,0.5-6.8c0.4-2.8,1.2-5.2,2.3-7.3c1.1-2.1,2.5-3.8,4-5
		c2.1-1.6,4.6-2.4,7.3-2.4c2.9,0.1,5.2,1,6.9,2.8c1.7,1.8,2.6,4.3,2.8,7.6l-4.8,0c-0.3-3.8-2-5.8-5-5.9c-2.3-0.1-4.1,0.8-5.6,2.7
		c-1.5,1.8-2.5,4.5-3,8c-0.3,2-0.5,3.7-0.5,5c-0.1,2.7,0.4,4.7,1.3,6.3c1,1.5,2.4,2.3,4.2,2.3c2.3,0.1,4.3-0.6,5.8-1.9l1.1-6.3h-5.9
		l0.7-4.3h10.7L963.8,257.7z"/>
	<path class="st1" d="M986.4,261.9h-4.9l5.1-32.4h4.9L986.4,261.9z M991.5,220.7h5.7l-6.3,6.7h-4.1L991.5,220.7z"/>
	<path class="st1" d="M1021.5,253.4c0.3-2.1-0.8-3.7-3.1-4.8l-1.6-0.7c-3-1.2-5.2-2.6-6.4-4.2c-1.3-1.6-1.8-3.5-1.7-5.6
		c0.1-1.8,0.7-3.5,1.7-4.8c1-1.4,2.4-2.5,4-3.2c1.7-0.8,3.5-1.1,5.3-1.1c1.8,0,3.4,0.5,4.9,1.3c1.4,0.8,2.5,2,3.2,3.5
		c0.7,1.5,1.1,3.2,1,5.1l-4.9,0c0.1-1.7-0.3-3-1-3.9c-0.8-0.9-1.9-1.4-3.5-1.5c-1.6,0-2.9,0.4-4,1.2c-1.1,0.8-1.7,2-1.9,3.4
		c-0.3,1.9,0.9,3.4,3.4,4.4l1.5,0.6c3.1,1.2,5.2,2.6,6.4,4.3c1.2,1.6,1.8,3.6,1.6,5.8c-0.1,1.8-0.7,3.4-1.6,4.8
		c-1,1.3-2.3,2.4-3.9,3.1c-1.7,0.7-3.5,1.1-5.5,1.1c-1.9,0-3.6-0.5-5.2-1.3c-1.5-0.9-2.7-2.1-3.6-3.6c-0.8-1.6-1.2-3.3-1.1-5.3
		l4.9,0c-0.1,1.8,0.3,3.3,1.2,4.2c0.9,1,2.2,1.5,4,1.5c1.6,0,2.9-0.3,4-1.1C1020.6,256,1021.3,254.9,1021.5,253.4z"/>
	<path class="st1" d="M1067.1,234.1h-8.8l-4.3,27.8h-4.9l4.4-27.8h-8.8l0.7-4.5h22.5L1067.1,234.1z"/>
	<path class="st1" d="M1084.6,261.9h-4.9l5.1-32.4h4.9L1084.6,261.9z"/>
	<path class="st1" d="M1126.7,251.4c-0.5,3.4-1.9,6.1-4.1,8.1c-2.2,2-5,3-8.2,2.9c-1.9,0-3.5-0.5-4.9-1.5c-1.4-0.9-2.5-2.3-3.3-4.1
		c-0.8-1.8-1.2-3.8-1.3-6.1c-0.1-1.7,0.1-4,0.6-6.9c0.5-2.9,1.3-5.5,2.6-7.8c1.3-2.3,2.9-4.1,4.8-5.2c1.9-1.2,4-1.7,6.3-1.7
		c2.9,0.1,5.2,1.1,6.9,3c1.7,2,2.6,4.7,2.7,8.1h-4.9c-0.1-2.3-0.5-4-1.3-5c-0.8-1-2-1.6-3.6-1.6c-2.2-0.1-4,0.8-5.5,2.6
		c-1.5,1.8-2.5,4.4-3,7.9l-0.4,3l-0.2,2.3c-0.1,1.5,0,3,0.3,4.3c0.3,1.3,0.8,2.4,1.6,3.1c0.8,0.7,1.7,1.1,2.9,1.1
		c3.7,0.2,6.1-2,7.2-6.4L1126.7,251.4z"/>
	<path class="st1" d="M1153.7,262.4c-1.9,0-3.6-0.5-5-1.5c-1.4-1-2.5-2.4-3.4-4.2c-0.8-1.8-1.3-3.9-1.4-6.2c-0.1-1.9,0.1-4,0.4-6.5
		c0.4-2.5,1.1-4.7,2.1-6.8c1-2,2.2-3.7,3.6-5c2.3-2.1,5-3.1,8-3.1c2.9,0.1,5.2,1.2,6.9,3.3c1.7,2.1,2.7,5.1,2.8,8.7
		c0.1,1.8-0.1,4-0.5,6.3c-0.4,2.4-1,4.6-2,6.6c-0.9,2-2.1,3.6-3.4,5C1159.6,261.3,1156.9,262.5,1153.7,262.4z M1162.8,244.9l0.2-2.4
		c0.1-1.6,0-3.1-0.4-4.5c-0.3-1.4-0.9-2.4-1.7-3.1c-0.8-0.7-1.8-1.1-3-1.2c-1.7-0.1-3.2,0.5-4.5,1.6c-1.3,1.1-2.3,2.8-3.2,5.1
		c-0.8,2.3-1.3,5.1-1.4,8.5c-0.1,2.7,0.2,4.8,1.1,6.4c0.9,1.6,2.2,2.4,4,2.4c2.3,0.1,4.2-0.9,5.7-2.9c1.5-2,2.5-4.8,3-8.5
		L1162.8,244.9z"/>
</g>
</svg>
